<mxfile host="65bd71144e">
    <diagram id="ntM0n5_bOMkC-U1TmeSk" name="Page-1">
        <mxGraphModel dx="821" dy="549" grid="1" gridSize="10" guides="1" tooltips="1" connect="1" arrows="1" fold="1" page="1" pageScale="1" pageWidth="850" pageHeight="1100" math="0" shadow="0">
            <root>
                <mxCell id="0"/>
                <mxCell id="1" parent="0"/>
                <mxCell id="18" value="consumer" style="edgeStyle=none;html=1;" edge="1" parent="1" source="2" target="4">
                    <mxGeometry relative="1" as="geometry"/>
                </mxCell>
                <mxCell id="2" value="in-progress" style="ellipse;whiteSpace=wrap;html=1;fillColor=#d0cee2;strokeColor=#56517e;" vertex="1" parent="1">
                    <mxGeometry x="145" y="330" width="80" height="80" as="geometry"/>
                </mxCell>
                <mxCell id="13" value="" style="edgeStyle=none;html=1;entryX=0.5;entryY=1;entryDx=0;entryDy=0;" edge="1" parent="1" source="3" target="6">
                    <mxGeometry relative="1" as="geometry">
                        <mxPoint x="505" y="240" as="targetPoint"/>
                    </mxGeometry>
                </mxCell>
                <mxCell id="20" value="consumer" style="edgeStyle=none;html=1;" edge="1" parent="1" source="3" target="5">
                    <mxGeometry relative="1" as="geometry"/>
                </mxCell>
                <mxCell id="3" value="confirmed" style="ellipse;whiteSpace=wrap;html=1;fillColor=#60a917;fontColor=#ffffff;strokeColor=#2D7600;" vertex="1" parent="1">
                    <mxGeometry x="465" y="330" width="80" height="80" as="geometry"/>
                </mxCell>
                <mxCell id="11" value="" style="edgeStyle=none;html=1;entryX=0.5;entryY=1;entryDx=0;entryDy=0;" edge="1" parent="1" source="4" target="6">
                    <mxGeometry relative="1" as="geometry">
                        <mxPoint x="345" y="240" as="targetPoint"/>
                    </mxGeometry>
                </mxCell>
                <mxCell id="19" value="supplier" style="edgeStyle=none;html=1;" edge="1" parent="1" source="4" target="3">
                    <mxGeometry relative="1" as="geometry"/>
                </mxCell>
                <mxCell id="4" value="requested" style="ellipse;whiteSpace=wrap;html=1;fillColor=#fad7ac;strokeColor=#b46504;" vertex="1" parent="1">
                    <mxGeometry x="305" y="330" width="80" height="80" as="geometry"/>
                </mxCell>
                <mxCell id="5" value="completed" style="ellipse;whiteSpace=wrap;html=1;fillColor=#0050ef;fontColor=#ffffff;strokeColor=#001DBC;" vertex="1" parent="1">
                    <mxGeometry x="625" y="330" width="80" height="80" as="geometry"/>
                </mxCell>
                <mxCell id="6" value="cancelled" style="ellipse;whiteSpace=wrap;html=1;fillColor=#a20025;fontColor=#ffffff;strokeColor=#6F0000;" vertex="1" parent="1">
                    <mxGeometry x="385" y="110" width="80" height="80" as="geometry"/>
                </mxCell>
                <mxCell id="21" value="- &quot;Carrinho do &lt;b&gt;Consumidor&lt;/b&gt;&quot;&lt;br&gt;- Pedido sendo montado&lt;br&gt;- Contem produtos de um&lt;br&gt;&amp;nbsp; &amp;nbsp;&lt;b&gt;um&lt;/b&gt;&amp;nbsp;&lt;b&gt;forncedor&lt;/b&gt;&lt;br&gt;- Cada &lt;b&gt;consumidor&lt;/b&gt; só pode ter &lt;br&gt;&amp;nbsp;&lt;b&gt;um&lt;/b&gt;&amp;nbsp;&lt;b&gt;pedido&lt;/b&gt; &quot;in-progress&quot;, sendo&lt;br&gt;&amp;nbsp;seu carrinho&lt;br&gt;- Cada &lt;b&gt;forncedor&lt;/b&gt; pode ter &lt;b&gt;N &lt;br&gt;&amp;nbsp; pedidos&lt;/b&gt; in-progress" style="text;html=1;align=left;verticalAlign=middle;resizable=0;points=[];autosize=1;strokeColor=none;fillColor=none;" vertex="1" parent="1">
                    <mxGeometry x="90" y="410" width="200" height="140" as="geometry"/>
                </mxCell>
                <mxCell id="25" value="&lt;span style=&quot;font-size: 11px; background-color: rgb(24, 20, 29);&quot;&gt;consumer/supplier&lt;/span&gt;" style="text;html=1;align=center;verticalAlign=middle;resizable=0;points=[];autosize=1;strokeColor=none;fillColor=none;" vertex="1" parent="1">
                    <mxGeometry x="425" y="260" width="110" height="30" as="geometry"/>
                </mxCell>
                <mxCell id="28" value="&lt;span style=&quot;font-size: 11px; background-color: rgb(24, 20, 29);&quot;&gt;consumer/supplier&lt;/span&gt;" style="text;html=1;align=center;verticalAlign=middle;resizable=0;points=[];autosize=1;strokeColor=none;fillColor=none;" vertex="1" parent="1">
                    <mxGeometry x="315" y="260" width="110" height="30" as="geometry"/>
                </mxCell>
                <mxCell id="29" value="- Pedido encaminhado&lt;br&gt;&lt;div style=&quot;&quot;&gt;&lt;span style=&quot;background-color: initial;&quot;&gt;&amp;nbsp; ao fornecedor&lt;/span&gt;&lt;/div&gt;&lt;div style=&quot;&quot;&gt;&lt;span style=&quot;background-color: initial;&quot;&gt;- &lt;b&gt;Consumidor &lt;/b&gt;tem certeza do&amp;nbsp;&lt;/span&gt;&lt;/div&gt;&lt;div style=&quot;&quot;&gt;&lt;span style=&quot;background-color: initial;&quot;&gt;&amp;nbsp; pedido&lt;/span&gt;&lt;/div&gt;&lt;div style=&quot;&quot;&gt;&lt;span style=&quot;background-color: initial;&quot;&gt;- &lt;b&gt;Consumidor&lt;/b&gt; pode ter &lt;b&gt;N&lt;/b&gt;&lt;/span&gt;&lt;/div&gt;&lt;div style=&quot;&quot;&gt;&lt;span style=&quot;background-color: initial;&quot;&gt;&lt;b&gt;pedidos&lt;/b&gt; requested para &lt;b&gt;N&lt;/b&gt;&lt;/span&gt;&lt;/div&gt;&lt;div style=&quot;&quot;&gt;&lt;span style=&quot;background-color: initial;&quot;&gt;&lt;b&gt;fornecedores&lt;/b&gt;&lt;/span&gt;&lt;/div&gt;&lt;div style=&quot;&quot;&gt;- Fornecedor pode ter &lt;b&gt;N pedidos&lt;/b&gt;&lt;/div&gt;&lt;div style=&quot;&quot;&gt;&amp;nbsp;requested de &lt;b&gt;N consumidores&lt;/b&gt;&lt;/div&gt;" style="text;html=1;align=left;verticalAlign=middle;resizable=0;points=[];autosize=1;strokeColor=none;fillColor=none;" vertex="1" parent="1">
                    <mxGeometry x="280" y="410" width="200" height="140" as="geometry"/>
                </mxCell>
                <mxCell id="30" value="- Pedido confirmado pelo&amp;nbsp;&lt;br&gt;&amp;nbsp;fornecedor&lt;br&gt;- Fornecedor/Consumidor&lt;br&gt;estão acordados.&lt;br&gt;&lt;div style=&quot;&quot;&gt;&lt;span style=&quot;background-color: initial;&quot;&gt;- &lt;b&gt;Consumidor&lt;/b&gt; pode ter &lt;b&gt;N&lt;/b&gt;&lt;/span&gt;&lt;/div&gt;&lt;div style=&quot;&quot;&gt;&lt;span style=&quot;background-color: initial;&quot;&gt;&lt;b&gt;pedidos&lt;/b&gt; requested para &lt;b&gt;N&lt;/b&gt;&lt;/span&gt;&lt;/div&gt;&lt;div style=&quot;&quot;&gt;&lt;span style=&quot;background-color: initial;&quot;&gt;&lt;b&gt;fornecedores&lt;/b&gt;&lt;/span&gt;&lt;/div&gt;&lt;div style=&quot;&quot;&gt;- Fornecedor pode ter &lt;b&gt;N pedidos&lt;/b&gt;&lt;/div&gt;&lt;div style=&quot;&quot;&gt;&amp;nbsp;requested de &lt;b&gt;N consumidores&lt;/b&gt;&lt;/div&gt;&lt;div style=&quot;&quot;&gt;&lt;b&gt;- &lt;/b&gt;Estoque do &lt;b&gt;forncedor&lt;/b&gt; é atualizado&lt;/div&gt;" style="text;html=1;align=left;verticalAlign=middle;resizable=0;points=[];autosize=1;strokeColor=none;fillColor=none;" vertex="1" parent="1">
                    <mxGeometry x="465" y="410" width="220" height="160" as="geometry"/>
                </mxCell>
                <mxCell id="33" value="- Pedido entregue/encerado" style="text;html=1;align=left;verticalAlign=middle;resizable=0;points=[];autosize=1;strokeColor=none;fillColor=none;" vertex="1" parent="1">
                    <mxGeometry x="625" y="410" width="170" height="30" as="geometry"/>
                </mxCell>
                <mxCell id="34" value="- Pedido cancelado&lt;br&gt;- Motivo do cancelamento é registrado" style="text;html=1;align=left;verticalAlign=middle;resizable=0;points=[];autosize=1;strokeColor=none;fillColor=none;" vertex="1" parent="1">
                    <mxGeometry x="315" y="60" width="230" height="40" as="geometry"/>
                </mxCell>
            </root>
        </mxGraphModel>
    </diagram>
</mxfile>